<svg xmlns="http://www.w3.org/2000/svg" viewBox="0 0 397.73 97.02"><defs><style>.cls-1,.cls-3{fill:#fff;}.cls-1,.cls-2{fill-rule:evenodd;}.cls-2{fill:#e75550;}</style></defs><title>logo-white</title><g id="Layer_2" data-name="Layer 2"><g id="Layer_1-2" data-name="Layer 1"><path class="cls-1" d="M126.7,45.85q0-2.21-2.57-3.4a11.36,11.36,0,0,0-4.58-.87h-20v22.9h20a12.13,12.13,0,0,0,4.48-.77q2.68-1.13,2.68-3.24T124,57.17a11.69,11.69,0,0,0-4.48-.82H103.14V50.23h16.42a10.81,10.81,0,0,0,4.58-.93q2.57-1.18,2.57-3.45m5.92,14.56a8.57,8.57,0,0,1-1.13,4.27q-3.4,5.92-12.87,5.92H93.41V35.46h25.21q9,0,12.61,5.61a9.14,9.14,0,0,1-2.32,12.2A8.74,8.74,0,0,1,132.62,60.41Z"/><path class="cls-1" d="M183.11,70.65,163.39,39q-2.11-3.45-3.81-3.45T155.83,39l-19.31,31.7h7.87l15.35-25.52,15.51,25.52Z"/><path class="cls-1" d="M219.17,53.21A11.14,11.14,0,0,0,207.6,41.63H193.86v22.9H207.6a11.51,11.51,0,0,0,8.31-3.14,10.83,10.83,0,0,0,3.27-8.18m6.12-.52a17.63,17.63,0,0,1-5,12.87,17,17,0,0,1-12.71,5.09H187.78V35.51H207.6a17.71,17.71,0,0,1,12.74,4.73Q225.3,45,225.3,52.7Z"/><path class="cls-1" d="M269.5,70.65H247.17a17.06,17.06,0,0,1-12.68-5.09,17.59,17.59,0,0,1-5-12.87q0-7.72,5-12.45a17.71,17.71,0,0,1,12.74-4.73H267v6.12H247.17a11.14,11.14,0,0,0-11.58,11.58,10.83,10.83,0,0,0,3.27,8.18,11.51,11.51,0,0,0,8.31,3.14h16.21V56.86H246.7V51.26h22.8Z"/><path class="cls-2" d="M351.68,54.86q0,8.49-5.1,12.4-4.48,3.4-13.28,3.4H331.2q-8.8,0-13.28-3.4-5.09-3.91-5.09-12.4V35.51h6.12V54.86q0,6.33,4.37,8.39,2.83,1.29,10,1.29,6,0,8.75-1.8,3.5-2.26,3.5-7.87V28h-4.24l7.3-14.59L355.91,28h-4.24Z"/><path class="cls-2" d="M397.73,48.17a11.59,11.59,0,0,1-4.22,9.31,14.74,14.74,0,0,1-9.83,3.29H368.2V54.7h16.47a7.47,7.47,0,0,0,5.09-1.8,6,6,0,0,0,2.06-4.79,5.89,5.89,0,0,0-2.06-4.73,7.6,7.6,0,0,0-5.09-1.75H364.6v29h-6.12V35.51h25.21a14.6,14.6,0,0,1,9.83,3.34,11.49,11.49,0,0,1,4.22,9.31"/><rect class="cls-3" x="274.94" y="35.51" width="31.42" height="6.12"/><rect class="cls-3" x="274.94" y="64.53" width="31.42" height="6.12"/><rect class="cls-3" x="274.94" y="50.02" width="31.42" height="6.12"/><path class="cls-2" d="M58.78,28.24A34.71,34.71,0,0,1,74.62,57.36h0V62.3h0A34.7,34.7,0,0,1,39.93,97v0h0v0A34.7,34.7,0,0,1,5.23,62.3h0L5.36,7.94C4.82,4.67,2.49,3.93,0,3.36V0H21.07V62.3h0A19,19,0,0,0,39.92,81.18v0h0v0A19,19,0,0,0,58.81,62.3h0Z"/><path class="cls-1" d="M48,62.22a8.07,8.07,0,1,1-16.14,0V27.36H24.32l15.6-13.94,15.6,13.94H48V62.22Z"/></g></g></svg>